<?xml version="1.0" encoding="UTF-8" standalone="no"?>
<!DOCTYPE svg PUBLIC "-//W3C//DTD SVG 1.1//EN" "http://www.w3.org/Graphics/SVG/1.1/DTD/svg11.dtd">
<svg width="100%" height="100%" viewBox="0 0 512 512" version="1.1" xmlns="http://www.w3.org/2000/svg" xmlns:xlink="http://www.w3.org/1999/xlink" xml:space="preserve" xmlns:serif="http://www.serif.com/" style="fill-rule:evenodd;clip-rule:evenodd;stroke-linecap:round;stroke-linejoin:round;">
    <g id="Background" transform="matrix(5.57923,0,0,4.3817,-133.816,-228.49)">
        <rect x="23.985" y="52.146" width="91.769" height="116.85" style="fill:rgb(200,200,200);"/>
    </g>
    <g id="Calendar" transform="matrix(0.963905,0,0,0.981569,9.23881,4.71842)">
        <g transform="matrix(1.12803,0,0,0.68243,-60.5424,82.8266)">
            <path d="M235.137,272.511C235.137,265.516 231.639,259.836 227.329,259.836L182.043,259.836C177.733,259.836 174.234,265.516 174.234,272.511L174.234,283.375C174.234,290.371 177.733,296.05 182.043,296.05L227.329,296.05C231.639,296.05 235.137,290.371 235.137,283.375L235.137,272.511Z"/>
        </g>
        <g transform="matrix(1.12803,0,0,0.68243,-60.5424,122.703)">
            <path d="M235.137,272.511C235.137,265.516 231.639,259.836 227.329,259.836L182.043,259.836C177.733,259.836 174.234,265.516 174.234,272.511L174.234,283.375C174.234,290.371 177.733,296.05 182.043,296.05L227.329,296.05C231.639,296.05 235.137,290.371 235.137,283.375L235.137,272.511Z"/>
        </g>
        <g transform="matrix(1.12803,0,0,0.68243,-60.5424,162.58)">
            <path d="M235.137,272.511C235.137,265.516 231.639,259.836 227.329,259.836L182.043,259.836C177.733,259.836 174.234,265.516 174.234,272.511L174.234,283.375C174.234,290.371 177.733,296.05 182.043,296.05L227.329,296.05C231.639,296.05 235.137,290.371 235.137,283.375L235.137,272.511Z"/>
        </g>
        <g transform="matrix(1.12803,0,0,0.68243,25.1119,82.8266)">
            <path d="M235.137,272.511C235.137,265.516 231.639,259.836 227.329,259.836L182.043,259.836C177.733,259.836 174.234,265.516 174.234,272.511L174.234,283.375C174.234,290.371 177.733,296.05 182.043,296.05L227.329,296.05C231.639,296.05 235.137,290.371 235.137,283.375L235.137,272.511Z"/>
        </g>
        <g transform="matrix(1.12803,0,0,0.68243,25.1119,122.703)">
            <path d="M235.137,272.511C235.137,265.516 231.639,259.836 227.329,259.836L182.043,259.836C177.733,259.836 174.234,265.516 174.234,272.511L174.234,283.375C174.234,290.371 177.733,296.05 182.043,296.05L227.329,296.05C231.639,296.05 235.137,290.371 235.137,283.375L235.137,272.511Z"/>
        </g>
        <g transform="matrix(1.12803,0,0,0.68243,25.1119,162.58)">
            <path d="M235.137,272.511C235.137,265.516 231.639,259.836 227.329,259.836L182.043,259.836C177.733,259.836 174.234,265.516 174.234,272.511L174.234,283.375C174.234,290.371 177.733,296.05 182.043,296.05L227.329,296.05C231.639,296.05 235.137,290.371 235.137,283.375L235.137,272.511Z"/>
        </g>
        <g transform="matrix(1.12803,0,0,0.68243,110.763,82.8266)">
            <path d="M235.137,272.511C235.137,265.516 231.639,259.836 227.329,259.836L182.043,259.836C177.733,259.836 174.234,265.516 174.234,272.511L174.234,283.375C174.234,290.371 177.733,296.05 182.043,296.05L227.329,296.05C231.639,296.05 235.137,290.371 235.137,283.375L235.137,272.511Z"/>
        </g>
        <g transform="matrix(1.12803,0,0,0.68243,110.763,122.703)">
            <path d="M235.137,272.511C235.137,265.516 231.639,259.836 227.329,259.836L182.043,259.836C177.733,259.836 174.234,265.516 174.234,272.511L174.234,283.375C174.234,290.371 177.733,296.05 182.043,296.05L227.329,296.05C231.639,296.05 235.137,290.371 235.137,283.375L235.137,272.511Z"/>
        </g>
        <g transform="matrix(1.12803,0,0,0.68243,110.763,162.58)">
            <path d="M235.137,272.511C235.137,265.516 231.639,259.836 227.329,259.836L182.043,259.836C177.733,259.836 174.234,265.516 174.234,272.511L174.234,283.375C174.234,290.371 177.733,296.05 182.043,296.05L227.329,296.05C231.639,296.05 235.137,290.371 235.137,283.375L235.137,272.511Z"/>
        </g>
        <g transform="matrix(16.3708,0,0,16.3708,59.5544,59.5494)">
            <g>
                <path d="M15,4L15,2M15,4L15,6M15,4L10.5,4M3,10L3,19C3,20.105 3.895,21 5,21L19,21C20.105,21 21,20.105 21,19L21,10L3,10Z" style="fill:none;fill-rule:nonzero;stroke:black;stroke-width:1.5px;"/>
                <path d="M3,10L3,6C3,4.895 3.895,4 5,4L7,4" style="fill:none;fill-rule:nonzero;stroke:black;stroke-width:1.5px;"/>
                <path d="M7,2L7,6" style="fill:none;fill-rule:nonzero;stroke:black;stroke-width:1.5px;"/>
                <path d="M21,10L21,6C21,4.895 20.105,4 19,4L18.5,4" style="fill:none;fill-rule:nonzero;stroke:black;stroke-width:1.5px;"/>
            </g>
        </g>
    </g>
</svg>
